<?xml version="1.0"?>
<svg xmlns="http://www.w3.org/2000/svg" id="Layer_2" data-name="Layer 2" viewBox="0 0 128 128" width="512" height="512"><title>DRONE</title><path d="M120.208,27.333h-1.375V26a5.5,5.5,0,0,0-11,0v1.333h-1.375a7.8,7.8,0,0,0-7.791,7.792,1.75,1.75,0,0,0,1.75,1.75h7.416v7.792h-2.666a1.75,1.75,0,0,0-1.75,1.75V52.2L86.163,39.948a1.749,1.749,0,0,0-1.013-.323h-42.3a1.753,1.753,0,0,0-1.013.323L24.583,52.195V46.417a1.75,1.75,0,0,0-1.75-1.75H20.167V36.875h7.417a1.75,1.75,0,0,0,1.75-1.75,7.8,7.8,0,0,0-7.792-7.792H20.167V26a5.5,5.5,0,0,0-11,0v1.333H7.792A7.8,7.8,0,0,0,0,35.125a1.75,1.75,0,0,0,1.75,1.75H9.167v7.792H6.5a1.75,1.75,0,0,0-1.75,1.75V79.08a1.751,1.751,0,0,0,.377,1.085l3.163,4a1.75,1.75,0,0,0,1.373.665H19.671a1.75,1.75,0,0,0,1.373-.665l3.163-4a1.751,1.751,0,0,0,.377-1.085V75.667h7.978L25.689,86.481a1.749,1.749,0,0,0-.273.938v18.33a1.75,1.75,0,0,0,1.75,1.75h8a1.75,1.75,0,0,0,1.75-1.75V90.256L43.5,79.9l6.245,8.164a1.75,1.75,0,0,0,1.39.687H76.867a1.749,1.749,0,0,0,1.39-.687L84.5,79.9l6.582,10.358V105.75a1.75,1.75,0,0,0,1.75,1.75h8a1.75,1.75,0,0,0,1.75-1.75V87.42a1.746,1.746,0,0,0-.273-.938L95.438,75.667h7.979V79.08a1.748,1.748,0,0,0,.377,1.084l3.162,4a1.75,1.75,0,0,0,1.373.666h10.008a1.751,1.751,0,0,0,1.373-.665l3.163-4a1.751,1.751,0,0,0,.377-1.085V46.417a1.75,1.75,0,0,0-1.75-1.75h-2.667V36.875h7.417a1.75,1.75,0,0,0,1.75-1.75A7.8,7.8,0,0,0,120.208,27.333ZM111.333,26a2,2,0,0,1,4,0v1.333h-4ZM43.407,43.125H84.593L99.679,53.833H28.322ZM12.667,26a2,2,0,0,1,4,0v1.333h-4ZM7.792,30.833h13.75a4.3,4.3,0,0,1,3.919,2.542H3.873A4.3,4.3,0,0,1,7.792,30.833Zm4.875,6.042h4v7.792h-4Zm-1.75,11.292H21.083v3.458H8.25V48.167ZM21.083,78.472l-2.26,2.861H10.51L8.25,78.472V55.125H21.083ZM33.417,104h-4.5v-2.125h4.5Zm.273-15.191a1.749,1.749,0,0,0-.273.938v8.628h-4.5V87.929l7.792-12.262H40.26l.972,1.271ZM76,85.25H52l-7.331-9.583H53.75V79.5a1.75,1.75,0,0,0,3.5,0V75.667h5V79.5a1.75,1.75,0,0,0,3.5,0V75.667h5V79.5a1.75,1.75,0,0,0,3.5,0V75.667h9.083l-.088.115h0ZM99.084,104h-4.5v-2.125h4.5Zm0-16.071V98.375h-4.5V89.747a1.746,1.746,0,0,0-.273-.938L86.768,76.938l.972-1.271h3.553Zm-74.5-15.762V57.333h78.833V72.167Zm92.906,9.167h-8.312l-2.26-2.861V55.125H119.75V78.472Zm2.261-29.708H106.917V48.167H119.75Zm-4.417-6.958h-4V36.875h4ZM102.54,33.375a4.3,4.3,0,0,1,3.918-2.542h13.75a4.3,4.3,0,0,1,3.919,2.542Z"/><path d="M66.833,63H37.583a1.75,1.75,0,0,0,0,3.5h29.25a1.75,1.75,0,0,0,0-3.5Z"/><path d="M79.417,63H74.333a1.75,1.75,0,0,0,0,3.5h5.084a1.75,1.75,0,0,0,0-3.5Z"/><path d="M90.417,63H85.333a1.75,1.75,0,0,0,0,3.5h5.084a1.75,1.75,0,0,0,0-3.5Z"/></svg>
